#!OML:ASF E:/inclinewalkrobotboard/Project1/Captureday1/Session1/subject1.ASF
:FULLY-SPECIFIED
:DEGREES
296
root 0 0 0 -2.144597347787952 -3.7721763054499036 0.5104406723749098
lowerback 7.482451238568393 1.6113292148010654 -2.517987912460244
upperback 1.933914436171067 2.0011401596228646 -0.07998659695932608
thorax -2.2162982901186172 1.0538656535113002 1.214019141528364
lowerneck -9.073125739421512 -5.532286029875058 -6.47863900752751
upperneck 30.91832129694217 -8.672053407552593 6.129484231206458
head 11.560193024320778 -3.958894890747004 2.0372011208951766
rclavicle -2.864091358526871E-15 1.7651286199569988E-15
rhumerus -10.109368637821216 4.236034152690557 -79.96120302578875
rradius 51.83956407126869
rwrist -21.49926197624915
rhand -41.842002299527024 15.221686539039554
rfingers 7.125019999999951
rthumb -14.711639499491667 -14.210010584714489
lclavicle -6.628951045498434E-15 1.408951587224259E-15
lhumerus -30.845660779797566 11.654680335307685 77.37657589266894
lradius 24.805015575830307
lwrist -4.797963627372125
lhand -24.15021227931837 21.952093351026498
lfingers 7.125019999999955
lthumb 2.333547052533481 51.888662411713334
rfemur 2.185861380136465 8.451502381925568 34.63180152606671
rtibia 26.42009526842387
rfoot -21.03576920309887 -9.161076968643522
rtoes 4.432500567839164
lfemur -31.277493822323372 2.1050862456454933 -12.81108438506886
ltibia 47.11943870819568
lfoot -5.6350689556683875 -3.175884732701407
ltoes -6.658501206015183
297
root 0 0 0 -2.1234216189276935 -3.7469353737072484 0.513650187996386
lowerback 7.509748848560781 1.6176827335766102 -2.525976795569058
upperback 1.946440661501672 2.0080848778300253 -0.08303638351678655
thorax -2.219411724479857 1.0575738725229842 1.2133470461723714
lowerneck -9.071805546938133 -5.542448499643288 -6.497044955168301
upperneck 30.881510905141752 -8.679930165462277 6.167273432302015
head 11.551033701211013 -3.9627676429236933 2.0524445584596207
rclavicle -2.5684701331838285E-15 1.7228716187082444E-15
rhumerus -10.060204338400567 4.121968482839398 -79.97178344374154
rradius 51.58902793332828
rwrist -21.434242528333552
rhand -41.869259097275624 15.343307081650043
rfingers 7.125019999999951
rthumb -14.735621241723823 -14.087060501603908
lclavicle -6.463505347620009E-15 1.401790064781637E-15
lhumerus -30.932632330833478 11.766426282665037 77.20974120187655
lradius 24.772465263079113
lwrist -4.845358582304577
lhand -24.242819071321808 21.912914176121372
lfingers 7.125019999999956
lthumb 2.2447475076175953 51.850750645427304
rfemur 2.536276859715817 8.464939403893233 34.64835469241848
rtibia 26.45343251053378
rfoot -20.983440458163543 -9.13342473125638
rtoes 4.053434614859944
lfemur -31.863692355584398 1.6117809455093006 -12.873760515422102
ltibia 43.6734153230655
lfoot -5.451548947627842 -3.2151491383813013
ltoes -6.102157586407634
298
root 0 0 0 -2.1109363237396 -3.7306774793182678 0.5131612646099208
lowerback 7.538011925140769 1.6189657352379951 -2.5310720615389513
upperback 1.9444039734260086 2.008897946250948 -0.0822370718453187
thorax -2.238957406144781 1.0577154234598933 1.2160119023096496
lowerneck -9.105058713664274 -5.54713415444997 -6.499470130309285
upperneck 30.87015998351501 -8.680175751253113 6.183285165070541
head 11.551205966841605 -3.9625171835169226 2.060007598418665
rclavicle -2.263267946829671E-15 1.6697818415090635E-15
rhumerus -9.884180997837742 3.847869958252983 -79.95484314710528
rradius 51.170590678422066
rwrist -21.325925663822787
rhand -41.908452885424424 15.502354358784624
rfingers 7.12501999999995
rthumb -14.769885052826254 -13.925129980312992
lclavicle -6.287840808327744E-15 1.3658326825579947E-15
lhumerus -30.994254302442815 11.858973319956347 77.0847959596529
lradius 24.749283304899066
lwrist -4.879221161300084
lhand -24.319912417581442 21.8776202228917
lfingers 7.125019999999957
lthumb 2.1708588311233754 51.816675825910046
rfemur 2.515991589254035 8.452570714638533 34.6328086589671
rtibia 26.794695229072552
rfoot -20.727929560387185 -9.088725411655375
rtoes 3.7187871131122647
lfemur -32.035290392892875 1.2513933039718435 -13.066169037037579
ltibia 41.215261771905375
lfoot -5.08027334093954 -3.540640809473553
ltoes -5.486452272587746
299
root 0 0 0 -2.1053117116140982 -3.7228458512584233 0.5102523455048498
lowerback 7.565125027935838 1.6163830982578087 -2.5338293608138844
upperback 1.9327267384555986 2.005046325722711 -0.07872114708754163
thorax -2.268297365333412 1.0552131030654046 1.2210352063127097
lowerneck -9.158544231427648 -5.547510176633434 -6.49033733368264
upperneck 30.87709972784018 -8.674991818994805 6.183054743066219
head 11.557521271098512 -3.959415861595397 2.0616972713206017
rclavicle -1.9922610978603516E-15 1.6150361585532759E-15
rhumerus -9.620326005444326 3.471323690174531 -79.91605810701998
rradius 50.66590280771717
rwrist -21.19246746524464
rhand -41.9538220437504 15.67302812065543
rfingers 7.1250199999999495
rthumb -14.809597847873334 -13.75054245662226
lclavicle -6.12713748695863E-15 1.3113314190966816E-15
lhumerus -31.025664861359207 11.922133050169803 77.01307189314622
lradius 24.73730490125215
lwrist -4.896984017509259
lhand -24.37274114732822 21.85056055108933
lfingers 7.125019999999957
lthumb 2.1202679393351325 51.79061636321217
rfemur 2.049749915160572 8.411146999699344 34.57770324374811
rtibia 27.47245641465726
rfoot -20.276073412499628 -9.057228883949907
rtoes 3.510939778021092
lfemur -31.862515078971057 1.0502555073428645 -13.367115493392387
ltibia 39.86909162270976
lfoot -4.620309424779369 -4.055987286090202
ltoes -4.875747393441772
300
root 0 0 0 -2.1051850279561592 -3.7232557279854785 0.5062470463342312
lowerback 7.587778186139566 1.611168972895231 -2.5348378649247056
upperback 1.9165090354793568 1.9980488775755745 -0.07366378386262873
thorax -2.299854912208829 1.051030328211112 1.2273982243346548
lowerneck -9.216754925270973 -5.544798627354641 -6.474410794449532
upperneck 30.89727861306317 -8.666976662948693 6.171535217891102
head 11.567417802122186 -3.954914381128582 2.0589889056287856
rclavicle -1.7747647314462355E-15 1.5624306211449063E-15
rhumerus -9.309900966463008 3.051333211220353 -79.86104454374586
rradius 50.14650734203809
rwrist -21.052370031928064
rhand -41.99672526563777 15.835578586998821
rfingers 7.125019999999948
rthumb -14.846983915384346 -13.583789107017196
lclavicle -5.9938648870777774E-15 1.2430573878949158E-15
lhumerus -31.0246118246544 11.95073980933972 77.00039866762191
lradius 24.73943277445814
lwrist -4.894388412196859
lhand -24.39958027307058 21.833600769254428
lfingers 7.125019999999957
lthumb 2.09459715918609 51.77432255759213
rfemur 0.9909523275900205 8.338174477784584 34.460943816338336
rtibia 28.51903377937969
rfoot -19.61969518935648 -9.081868759907536
rtoes 3.519551217939957
lfemur -31.411899292170176 0.996834335868817 -13.742311884459824
ltibia 39.51642422187024
lfoot -4.167331181317363 -4.666110454242007
ltoes -4.337483622717624
301
root 0 0 0 -2.1096729161108607 -3.731919969349301 0.5020455995633903
lowerback 7.603724219761607 1.6041018578284036 -2.5345960199876196
upperback 1.8992056068834589 1.9888537708661902 -0.06780944699276903
thorax -2.3284916358638466 1.0457802410850616 1.2345214430110052
lowerneck -9.269268833913733 -5.5398974478887935 -6.454946047170192
upperneck 30.928239428324595 -8.65804854006171 6.151920574130232
head 11.579476207515162 -3.9500645655044764 2.0527973687189416
rclavicle -1.610401296297126E-15 1.5123222449865074E-15
rhumerus -8.985816749905144 2.6327570822996744 -79.79456176247332
rradius 49.65896094119745
rwrist -20.91914804018853
rhand -42.02986621251539 15.97939192533653
rfingers 7.125019999999947
rthumb -14.87529247059516 -13.436118926845051
lclavicle -5.890190903364527E-15 1.1631690285593884E-15
lhumerus -30.991838392782025 11.94551599225959 77.04591729598445
lradius 24.758088565601803
lwrist -4.867835890751726
lhand -24.404551155033445 21.826043850853427
lfingers 7.125019999999957
lthumb 2.0898524145516557 51.76706754511512
rfemur -0.7682431578392039 8.236842041459504 34.259106825502116
rtibia 29.913334529289358
rfoot -18.749279367676937 -9.188273862384154
rtoes 3.772915702000681
lfemur -30.73158817681366 1.065393051628579 -14.160724660952837
ltibia 39.957602442567975
lfoot -3.7784994012842663 -5.319439658387568
ltoes -3.9283686110631284
302
root 0 0 0 -2.118502648799662 -3.748993616210679 0.4979994935539008
lowerback 7.61215607242833 1.5954192655895678 -2.533437317890117
upperback 1.8820566471188878 1.9777318484530504 -0.061421824434628514
thorax -2.352362987985623 1.0396492745460133 1.24227920051269
lowerneck -9.312408333961388 -5.533268767686658 -6.4332593031056895
upperneck 30.96984799430881 -8.649139303082244 6.125334944915749
head 11.593438415756378 -3.945351649340193 2.043419492099512
rclavicle -1.4907895726354048E-15 1.461140446077137E-15
rhumerus -8.664191138787508 2.2372005057887288 -79.71872931507528
rradius 49.22254977051372
rwrist -20.799395189467063
rhand -42.04917860056473 16.101087846805353
rfingers 7.125019999999945
rthumb -14.89067177148896 -13.311266940497005
lclavicle -5.813284998320838E-15 1.0688344260260233E-15
lhumerus -30.930561899631634 11.911059994939738 77.14335969642669
lradius 24.793466981560208
lwrist -4.817000657327634
lhand -24.39338593249941 21.82585131960722
lfingers 7.125019999999957
lthumb 2.1005124653505365 51.766859997927746
rfemur -3.2410753632648586 8.114454876088775 33.95927596143862
rtibia 31.589925871859904
rfoot -17.652983393904258 -9.366377611497764
rtoes 4.214719482347316
lfemur -29.834912956830962 1.240135335816488 -14.603140776230127
ltibia 41.082668832005105
lfoot -3.4663635644761666 -6.0130422358295
ltoes -3.690402776415915
303
root 0 0 0 -2.132377297342277 -3.7750272772291114 0.4940051218578147
lowerback 7.61246787112373 1.5849703924230387 -2.5314053443250306
upperback 1.8644054086873516 1.9644906348342555 -0.05450281963497117
thorax -2.371807292952661 1.0325233523478836 1.2506828843683842
lowerneck -9.347317126341537 -5.524924811283591 -6.4091778892748
upperneck 31.023721788099188 -8.640381058843483 6.090843315762027
head 11.609901646835473 -3.9407955949055387 2.030468077030294
rclavicle -1.4140451926557E-15 1.4048191704165004E-15
rhumerus -8.345445077768844 1.8672297656514387 -79.63266968893511
rradius 48.84114032026788
rwrist -20.694971094724938
rhand -42.053512630585644 16.199369294712017
rfingers 7.125019999999943
rthumb -14.89202625080738 -13.210611042336376
lclavicle -5.763508091669834E-15 9.550577106571998E-16
lhumerus -30.84506617295367 11.851901918783263 77.28461712479609
lradius 24.842946869898366
lwrist -4.745713251525842
lhand -24.368586643483265 21.831707884017387
lfingers 7.125019999999956
lthumb 2.124180165239877 51.77245069117641
rfemur -6.335866823447278 7.975431155620511 33.57327086689125
rtibia 33.48634860978389
rfoot -16.33220362385047 -9.57492315514029
rtoes 4.75878164785945
lfemur -28.70448978863314 1.5194762444407512 -15.057933363354552
ltibia 42.912452342990626
lfoot -3.209813594852463 -6.764811689574374
ltoes -3.651132439671497
